<?xml version="1.0" standalone="no"?>
<!DOCTYPE svg PUBLIC "-//W3C//DTD SVG 20010904//EN"
 "http://www.w3.org/TR/2001/REC-SVG-20010904/DTD/svg10.dtd">
<svg version="1.0" xmlns="http://www.w3.org/2000/svg"
 width="1728.000000pt" height="1806.000000pt" viewBox="0 0 1728.000000 1806.000000"
 preserveAspectRatio="xMidYMid meet">

<g transform="translate(0.000000,1806.000000) scale(0.100000,-0.100000)"
fill="#000000" stroke="none">
<path d="M9735 18014 c-103 -41 -175 -56 -222 -48 -18 3 -54 1 -80 -5 -163
-40 -309 -276 -387 -623 -53 -236 -60 -340 -61 -878 0 -616 6 -666 113 -1000
86 -264 129 -556 152 -1005 14 -302 33 -2417 26 -2935 -39 -2717 -139 -5879
-221 -7040 -36 -503 -57 -668 -140 -1090 -44 -229 -71 -412 -86 -587 -14 -170
-7 -1148 10 -1343 55 -639 150 -953 332 -1097 63 -49 195 -124 266 -150 88
-32 180 -31 250 2 107 49 280 241 376 415 161 294 255 785 326 1715 59 764 57
850 -39 1691 -28 247 -38 580 -50 1659 -11 1002 -22 1689 -41 2452 l-10 451
30 91 c80 239 219 423 411 546 111 70 163 117 231 207 218 291 352 848 421
1763 17 224 17 1194 0 1490 -103 1782 -246 2866 -502 3800 -60 218 -175 584
-234 744 -160 427 -329 666 -545 769 -62 30 -87 36 -155 39 -74 3 -89 0 -171
-33z m344 -2160 c130 -109 244 -574 301 -1219 55 -636 70 -1326 39 -1820 -30
-476 -112 -849 -195 -887 -46 -21 -80 35 -114 192 -13 62 -28 298 -45 740 -23
575 -83 1997 -100 2355 -19 411 -8 592 41 646 23 25 37 24 73 -7z"/>
<path d="M7330 17863 c-194 -34 -486 -99 -528 -118 -162 -74 -383 -408 -517
-780 -97 -269 -160 -541 -241 -1040 -23 -142 -28 -202 -28 -360 -1 -166 2
-204 24 -305 23 -105 25 -135 24 -345 0 -126 -8 -320 -17 -430 -10 -110 -37
-501 -62 -870 -25 -368 -63 -924 -85 -1235 -99 -1410 -143 -2241 -182 -3425
-17 -505 -17 -2152 0 -2615 7 -195 24 -654 38 -1020 34 -918 40 -1322 24
-1605 -7 -126 -13 -327 -13 -445 l0 -215 -38 230 c-87 519 -142 748 -284 1187
-154 472 -195 647 -305 1293 -467 2732 -553 5600 -249 8290 60 538 177 1462
230 1825 134 922 150 1082 130 1254 -23 196 -83 232 -218 132 -80 -60 -142
-127 -350 -377 -326 -391 -480 -614 -623 -900 -120 -239 -163 -364 -205 -605
-55 -319 -100 -528 -290 -1354 -121 -529 -200 -897 -265 -1235 -425 -2206
-574 -4312 -465 -6555 9 -168 24 -426 35 -575 37 -517 41 -592 50 -935 12
-442 34 -612 125 -966 79 -310 185 -609 362 -1023 323 -757 570 -1101 919
-1277 135 -69 195 -79 238 -43 38 34 52 128 37 257 -32 267 -273 1233 -423
1692 -39 118 -117 341 -175 495 -151 403 -237 647 -294 835 -145 477 -272
1114 -343 1730 -61 525 -76 723 -76 1041 0 261 9 394 41 579 35 210 41 226
100 286 58 59 73 63 134 35 126 -57 292 -358 369 -671 53 -217 79 -421 126
-1000 12 -140 45 -511 75 -825 86 -907 116 -1286 135 -1740 10 -245 23 -336
110 -760 76 -372 194 -815 301 -1137 173 -521 393 -944 593 -1143 173 -173
337 -241 445 -185 107 54 191 248 222 511 11 97 8 387 -6 524 -3 28 10 -15 29
-95 90 -386 221 -757 332 -941 169 -281 366 -420 636 -448 226 -23 365 34 416
171 40 106 47 195 46 543 -2 359 -11 580 -49 1155 -47 703 -63 817 -205 1454
-123 554 -181 897 -244 1466 -75 669 -109 1234 -162 2700 -22 612 -25 756 -16
860 17 183 56 308 117 374 65 70 105 -37 175 -469 88 -543 140 -1127 185
-2095 42 -908 76 -1494 130 -2260 119 -1689 295 -2994 496 -3688 42 -147 123
-362 170 -452 74 -143 152 -210 244 -210 62 0 110 28 217 126 40 37 97 82 126
101 28 18 52 39 52 46 0 7 22 93 50 192 68 243 84 360 77 550 -4 83 -15 220
-26 305 -18 140 -33 228 -115 670 -31 169 -66 447 -111 890 -81 795 -132 1506
-195 2695 -83 1573 -159 2376 -305 3240 -82 486 -122 669 -171 781 -82 190
-225 576 -254 688 -52 198 -81 413 -101 737 l-11 186 45 139 c277 851 428
1838 487 3184 58 1333 28 1985 -120 2586 -109 442 -212 660 -343 723 -42 20
-134 27 -207 14z m-258 -2173 c73 -57 99 -249 99 -725 0 -277 -13 -563 -46
-1055 -52 -754 -130 -1283 -241 -1628 -45 -142 -81 -207 -114 -207 -20 0 -27
8 -39 45 -22 63 -20 632 3 1090 38 776 93 1671 117 1915 28 286 119 585 178
585 10 0 30 -9 43 -20z m-3078 -2116 c25 -66 33 -418 16 -739 -5 -99 -21 -400
-35 -670 -14 -269 -30 -542 -35 -605 -14 -161 -48 -268 -98 -313 -19 -18 -21
-17 -45 7 -37 37 -76 33 -162 -14 -85 -47 -116 -50 -144 -14 -30 39 -34 96
-16 254 61 542 243 1403 397 1880 62 192 103 264 122 214z"/>
<path d="M11865 17567 c-61 -29 -150 -123 -207 -220 -84 -141 -128 -330 -128
-555 0 -266 30 -422 155 -804 195 -591 300 -1087 399 -1868 220 -1735 251
-3646 96 -5770 -78 -1063 -202 -2038 -386 -3040 -95 -518 -172 -828 -316
-1270 -191 -590 -302 -1123 -423 -2039 -67 -507 -69 -538 -69 -791 0 -259 11
-342 60 -450 64 -144 158 -171 343 -100 167 65 293 169 404 337 233 349 393
801 541 1530 111 545 109 519 111 1538 1 933 3 989 75 2005 11 151 26 394 35
540 46 784 97 1177 202 1540 22 78 29 90 86 148 66 67 86 73 140 45 59 -30 89
-58 132 -123 86 -130 160 -327 196 -525 85 -459 -38 -1880 -247 -2865 -65
-303 -158 -661 -235 -896 -38 -119 -55 -192 -209 -924 -43 -206 -109 -501
-145 -655 -75 -321 -110 -497 -130 -675 -26 -220 -15 -511 21 -567 36 -56 109
-74 196 -49 272 79 729 656 1021 1291 280 607 537 1497 587 2030 5 61 10 315
10 565 0 250 4 516 10 590 5 74 16 279 25 455 115 2384 -62 4736 -536 7115
-167 838 -346 1534 -558 2170 -240 717 -406 1143 -615 1575 -139 287 -252 465
-385 607 -114 122 -171 145 -256 105z m891 -3903 c79 -158 140 -382 229 -855
112 -594 187 -1104 189 -1289 1 -115 -11 -162 -51 -211 l-26 -30 -18 30 c-12
21 -31 33 -59 41 -38 10 -47 8 -107 -19 -82 -39 -116 -40 -153 -3 -52 52 -62
135 -80 612 -29 814 -38 1633 -19 1749 18 111 27 108 95 -25z"/>
<path d="M14076 16335 c-49 -52 -66 -177 -42 -312 34 -197 146 -477 320 -796
252 -466 399 -799 558 -1267 302 -892 503 -1913 582 -2960 53 -697 53 -1477 0
-2210 -122 -1696 -441 -3094 -959 -4204 -177 -380 -336 -794 -615 -1596 -81
-234 -175 -497 -208 -585 -121 -325 -164 -489 -166 -645 -1 -119 13 -150 72
-150 60 0 207 97 379 252 449 402 1086 1547 1262 2268 30 124 73 368 130 740
17 107 65 389 106 625 121 684 181 1051 220 1330 88 640 108 780 135 926 32
167 81 370 124 511 25 81 30 90 87 138 54 48 62 52 95 45 115 -21 247 -266
290 -536 26 -161 15 -483 -25 -749 -140 -940 -399 -1805 -746 -2500 -29 -58
-86 -188 -128 -290 -171 -420 -310 -729 -522 -1160 -209 -425 -310 -654 -350
-793 -37 -130 14 -116 215 59 134 116 453 450 720 754 122 139 376 456 480
600 243 334 499 766 644 1087 120 266 156 390 217 736 22 126 64 349 95 495
164 794 228 1417 228 2217 0 438 -9 659 -45 1050 -127 1396 -518 2840 -1114
4105 -432 920 -1228 2110 -1796 2686 -152 155 -197 179 -243 129z m1574 -3225
c12 -17 48 -85 80 -153 226 -473 466 -1241 536 -1711 18 -121 14 -175 -17
-225 l-20 -34 -28 27 c-46 44 -84 49 -152 20 -69 -28 -98 -25 -133 17 -48 56
-50 71 -151 864 -20 154 -61 442 -91 640 -56 359 -77 585 -56 585 6 0 20 -14
32 -30z"/>
<path d="M3325 16145 c-131 -79 -248 -203 -527 -556 -97 -123 -232 -291 -298
-374 -386 -476 -810 -1082 -1127 -1610 -1019 -1698 -1484 -3485 -1348 -5185
109 -1353 577 -2689 1403 -4000 458 -727 1063 -1510 1527 -1976 241 -243 267
-257 301 -168 27 72 15 158 -55 363 -142 418 -511 1773 -675 2481 -212 913
-288 1383 -461 2860 -129 1099 -158 1297 -193 1340 -17 20 -17 20 -48 1 -66
-40 -132 -214 -214 -561 -135 -570 -152 -631 -205 -747 -58 -126 -110 -153
-179 -93 -67 59 -154 266 -216 511 -91 360 -134 903 -112 1411 52 1198 293
2149 793 3139 169 335 294 499 377 499 26 0 32 -18 32 -100 0 -87 -20 -241
-70 -545 -57 -345 -73 -510 -74 -740 -1 -215 5 -245 47 -245 45 0 95 64 170
215 129 261 264 641 413 1165 238 836 411 1354 684 2045 199 504 246 639 233
671 -11 29 -11 29 -177 -209 -27 -38 -50 -66 -52 -64 -10 9 38 211 71 303 31
85 56 204 43 204 -2 0 -31 -16 -63 -35z"/>
</g>
</svg>
